<?xml version="1.0" encoding="utf-8"?>
<!-- Generator: Adobe Illustrator 28.2.0, SVG Export Plug-In . SVG Version: 6.00 Build 0)  -->
<svg version="1.1" id="Layer_1" xmlns="http://www.w3.org/2000/svg" xmlns:xlink="http://www.w3.org/1999/xlink" x="0px" y="0px"
	 viewBox="0 0 2387.9 1059.2" style="enable-background:new 0 0 2387.9 1059.2;" xml:space="preserve">
<style type="text/css">
	.st0{fill:#002D4B;}
	.st1{fill:#B3B3B3;}
	.st2{fill:#FFFFFF;}
	.st3{fill:url(#SVGID_1_);}
	.st4{fill:#00C6BB;}
	.st5{fill:url(#SVGID_00000101085385866525875610000015858510763081322379_);}
	.st6{fill:#808080;}
	.st7{fill:url(#SVGID_00000175290498550265805160000016194171901080025778_);}
	.st8{fill:url(#SVGID_00000094575895539778727640000002627788190210919577_);}
</style>
<g>
	<g>
		<path class="st6" d="M278,745.06c-5.19,0-9.85-0.88-14-2.64c-4.15-1.76-7.57-4.28-10.27-7.55c-2.7-3.27-4.45-7.14-5.26-11.62
			l9.35-1.47c1.19,4.61,3.65,8.21,7.4,10.8c3.74,2.59,8.16,3.89,13.24,3.89c3.29,0,6.25-0.52,8.9-1.55
			c2.64-1.03,4.75-2.52,6.33-4.45c1.58-1.93,2.36-4.22,2.36-6.86c0-1.59-0.29-2.98-0.86-4.17c-0.58-1.19-1.34-2.19-2.29-3
			s-2.03-1.51-3.25-2.08c-1.22-0.57-2.49-1.07-3.81-1.47l-18.65-5.54c-2.04-0.57-4-1.33-5.9-2.26c-1.9-0.93-3.59-2.1-5.08-3.51
			c-1.49-1.41-2.68-3.11-3.56-5.11c-0.88-2-1.32-4.36-1.32-7.07c0-4.3,1.13-8,3.38-11.08c2.25-3.08,5.31-5.43,9.18-7.04
			c3.86-1.61,8.22-2.41,13.06-2.41c4.91,0.03,9.31,0.91,13.19,2.62s7.1,4.16,9.66,7.35c2.56,3.18,4.28,7,5.16,11.44l-9.61,1.68
			c-0.51-2.95-1.64-5.5-3.38-7.68c-1.75-2.17-3.92-3.84-6.53-5.01c-2.61-1.17-5.47-1.77-8.59-1.81c-2.98-0.03-5.67,0.45-8.08,1.45
			c-2.41,1-4.32,2.37-5.75,4.12c-1.42,1.75-2.13,3.74-2.13,5.97c0,2.27,0.64,4.08,1.93,5.44c1.29,1.35,2.87,2.43,4.75,3.23
			c1.88,0.8,3.72,1.45,5.52,1.96l13.93,4.02c1.59,0.44,3.43,1.05,5.52,1.83c2.08,0.78,4.11,1.87,6.07,3.28
			c1.96,1.41,3.59,3.27,4.88,5.59c1.29,2.32,1.93,5.24,1.93,8.77c0,3.52-0.7,6.66-2.11,9.4c-1.41,2.75-3.36,5.05-5.87,6.91
			c-2.51,1.87-5.42,3.27-8.74,4.22S281.79,745.06,278,745.06z"/>
		<path class="st6" d="M318.05,743.53v-54.9h8.08v14.69h1.02v40.21H318.05z M350.94,743.53l0.05-34.77c0-4.17-1.09-7.45-3.25-9.86
			c-2.17-2.41-5.05-3.61-8.64-3.61c-3.56,0-6.44,1.23-8.64,3.69c-2.21,2.46-3.3,5.68-3.3,9.68l-4.78-2.85
			c0-3.56,0.85-6.74,2.54-9.53c1.69-2.8,4-5.01,6.91-6.63c2.91-1.63,6.22-2.44,9.91-2.44c3.69,0,6.91,0.79,9.66,2.36
			c2.75,1.58,4.86,3.81,6.35,6.71c1.49,2.9,2.24,6.33,2.24,10.29l-0.05,36.95H350.94z M383.72,743.53l0.05-35.12
			c0-4.1-1.09-7.31-3.28-9.63c-2.19-2.32-5.02-3.48-8.51-3.48c-2.03,0-3.97,0.48-5.79,1.42s-3.32,2.41-4.47,4.37
			c-1.15,1.97-1.73,4.49-1.73,7.57l-4.78-1.93c-0.07-3.9,0.74-7.31,2.41-10.24c1.68-2.93,3.97-5.21,6.89-6.83
			c2.91-1.63,6.2-2.44,9.86-2.44c5.73,0,10.23,1.75,13.52,5.24c3.29,3.49,4.93,8.15,4.93,13.98l-0.05,37.11H383.72z"/>
		<path class="st6" d="M423.67,745.06c-4.1,0-7.53-0.76-10.29-2.26c-2.76-1.51-4.85-3.5-6.25-5.97c-1.41-2.47-2.11-5.19-2.11-8.13
			c0-2.88,0.54-5.37,1.63-7.47c1.08-2.1,2.63-3.86,4.65-5.29c2.02-1.42,4.42-2.54,7.19-3.35c2.61-0.71,5.52-1.33,8.74-1.85
			c3.22-0.53,6.49-1.01,9.81-1.45c3.32-0.44,6.44-0.86,9.35-1.27l-3.25,1.88c0.07-4.85-0.91-8.45-2.95-10.8
			c-2.03-2.36-5.56-3.53-10.57-3.53c-3.32,0-6.23,0.76-8.72,2.29c-2.49,1.53-4.24,3.97-5.26,7.32l-8.59-2.59
			c1.32-4.81,3.88-8.59,7.68-11.33c3.79-2.75,8.79-4.12,14.99-4.12c4.98,0,9.26,0.89,12.84,2.67c3.57,1.78,6.14,4.46,7.7,8.06
			c0.78,1.7,1.27,3.53,1.47,5.52c0.2,1.98,0.31,4.06,0.31,6.23v33.96h-8.03v-13.16l1.88,1.22c-2.07,4.47-4.96,7.84-8.69,10.09
			C433.47,743.93,428.96,745.06,423.67,745.06z M425.05,737.48c3.25,0,6.07-0.59,8.46-1.75c2.39-1.17,4.31-2.71,5.77-4.63
			c1.46-1.91,2.4-4.01,2.85-6.28c0.48-1.69,0.74-3.57,0.81-5.64c0.07-2.07,0.1-3.68,0.1-4.83l3.15,1.37
			c-2.95,0.44-5.85,0.85-8.72,1.22c-2.86,0.37-5.56,0.76-8.08,1.17c-2.53,0.41-4.8,0.9-6.84,1.47c-1.49,0.48-2.89,1.09-4.19,1.85
			c-1.31,0.76-2.36,1.73-3.15,2.9c-0.8,1.17-1.19,2.6-1.19,4.3c0,1.49,0.38,2.92,1.14,4.27c0.76,1.36,1.95,2.46,3.56,3.3
			C420.33,737.06,422.44,737.48,425.05,737.48z"/>
		<path class="st6" d="M468.3,743.53v-74.72h9.05v74.72H468.3z"/>
		<path class="st6" d="M495.65,743.53v-74.72h9.05v74.72H495.65z"/>
		<path class="st6" d="M544.29,743.53v-54.9h8.08v14.69h1.02v40.21H544.29z M577.18,743.53l0.05-34.77c0-4.17-1.09-7.45-3.25-9.86
			c-2.17-2.41-5.05-3.61-8.64-3.61c-3.56,0-6.44,1.23-8.64,3.69c-2.21,2.46-3.3,5.68-3.3,9.68l-4.78-2.85
			c0-3.56,0.85-6.74,2.54-9.53c1.69-2.8,4-5.01,6.91-6.63c2.91-1.63,6.22-2.44,9.91-2.44c3.69,0,6.91,0.79,9.66,2.36
			c2.75,1.58,4.86,3.81,6.35,6.71c1.49,2.9,2.24,6.33,2.24,10.29l-0.05,36.95H577.18z M609.96,743.53l0.05-35.12
			c0-4.1-1.09-7.31-3.28-9.63c-2.19-2.32-5.02-3.48-8.51-3.48c-2.03,0-3.97,0.48-5.79,1.42c-1.83,0.95-3.32,2.41-4.47,4.37
			c-1.15,1.97-1.73,4.49-1.73,7.57l-4.78-1.93c-0.07-3.9,0.74-7.31,2.41-10.24c1.68-2.93,3.97-5.21,6.89-6.83
			c2.91-1.63,6.2-2.44,9.86-2.44c5.73,0,10.23,1.75,13.52,5.24c3.29,3.49,4.93,8.15,4.93,13.98l-0.05,37.11H609.96z"/>
		<path class="st6" d="M657.19,745.06c-5.46,0-10.16-1.24-14.11-3.71c-3.95-2.47-6.99-5.89-9.12-10.24s-3.2-9.38-3.2-15.07
			c0-5.73,1.08-10.77,3.26-15.12c2.17-4.35,5.24-7.74,9.2-10.17c3.97-2.42,8.62-3.63,13.98-3.63c5.49,0,10.22,1.24,14.18,3.71
			c3.96,2.47,7,5.88,9.12,10.22c2.12,4.34,3.18,9.33,3.18,14.99c0,5.73-1.07,10.77-3.2,15.12c-2.13,4.36-5.18,7.76-9.15,10.22
			C667.35,743.82,662.64,745.06,657.19,745.06z M657.19,736.47c5.66,0,9.89-1.9,12.68-5.69c2.8-3.8,4.19-8.71,4.19-14.74
			c0-6.17-1.41-11.1-4.22-14.79c-2.81-3.69-7.03-5.54-12.66-5.54c-3.83,0-6.98,0.86-9.45,2.59c-2.47,1.73-4.32,4.12-5.54,7.17
			c-1.22,3.05-1.83,6.58-1.83,10.57c0,6.17,1.42,11.12,4.27,14.84C647.48,734.6,651.66,736.47,657.19,736.47z"/>
		<path class="st6" d="M697.9,743.53v-74.72h9.05v74.72H697.9z"/>
		<path class="st6" d="M748.02,745.06c-5.39,0-10.09-1.2-14.11-3.58c-4.02-2.39-7.14-5.73-9.38-10.01
			c-2.24-4.28-3.36-9.29-3.36-15.02c0-6,1.1-11.19,3.3-15.58c2.2-4.39,5.28-7.78,9.22-10.17c3.95-2.39,8.58-3.58,13.9-3.58
			c5.52,0,10.23,1.27,14.11,3.81c3.88,2.54,6.8,6.17,8.74,10.88c1.95,4.71,2.79,10.32,2.52,16.82h-9.15v-3.26
			c-0.1-6.74-1.47-11.78-4.12-15.12c-2.64-3.34-6.58-5.01-11.79-5.01c-5.59,0-9.84,1.79-12.76,5.39c-2.92,3.59-4.37,8.74-4.37,15.45
			c0,6.47,1.46,11.49,4.37,15.05c2.91,3.56,7.06,5.34,12.45,5.34c3.63,0,6.78-0.83,9.45-2.49c2.68-1.66,4.78-4.05,6.3-7.17l8.69,3
			c-2.13,4.85-5.35,8.6-9.63,11.26S753.34,745.06,748.02,745.06z M727.74,718.62v-7.27h40.56v7.27H727.74z"/>
		<path class="st6" d="M809.42,745.06c-5.56,0-10.28-1.25-14.15-3.74c-3.88-2.49-6.84-5.92-8.9-10.29
			c-2.05-4.37-3.09-9.35-3.13-14.94c0.03-5.69,1.1-10.72,3.2-15.07c2.1-4.35,5.1-7.76,9-10.22c3.9-2.46,8.59-3.68,14.08-3.68
			c5.79,0,10.78,1.42,14.97,4.27c4.19,2.85,6.99,6.74,8.41,11.69l-8.95,2.69c-1.19-3.18-3.08-5.66-5.67-7.42
			c-2.59-1.76-5.55-2.64-8.87-2.64c-3.76,0-6.86,0.87-9.3,2.62c-2.44,1.75-4.25,4.15-5.44,7.22c-1.19,3.07-1.8,6.58-1.83,10.55
			c0.07,6.1,1.48,11.02,4.24,14.77c2.76,3.74,6.87,5.62,12.33,5.62c3.59,0,6.57-0.82,8.92-2.47c2.35-1.64,4.16-4.02,5.41-7.14
			l9.15,2.39c-1.9,5.12-4.86,9.03-8.9,11.74C819.98,743.7,815.11,745.06,809.42,745.06z"/>
		<path class="st6" d="M866.2,744.95c-3.56,0-6.59-0.56-9.1-1.68c-2.51-1.12-4.59-2.61-6.25-4.47c-1.66-1.87-2.97-3.93-3.91-6.2
			s-1.62-4.59-2.01-6.97c-0.39-2.37-0.58-4.59-0.58-6.66v-30.35h9.15v27.5c0,2.58,0.24,5.07,0.71,7.47
			c0.48,2.41,1.28,4.57,2.41,6.51c1.14,1.93,2.66,3.46,4.57,4.57c1.91,1.12,4.31,1.68,7.19,1.68c2.27,0,4.33-0.39,6.18-1.17
			c1.85-0.78,3.43-1.94,4.75-3.48c1.32-1.54,2.35-3.5,3.08-5.87c0.73-2.37,1.09-5.13,1.09-8.28l5.95,1.83
			c0,5.29-0.96,9.84-2.87,13.67c-1.91,3.83-4.61,6.77-8.08,8.82C875,743.93,870.91,744.95,866.2,744.95z M884.5,743.53v-14.69h-1.02
			v-40.2h9.1v54.9H884.5z"/>
		<path class="st6" d="M909.86,743.53v-74.72h9.05v74.72H909.86z"/>
		<path class="st6" d="M959.98,745.06c-5.39,0-10.09-1.2-14.11-3.58c-4.02-2.39-7.14-5.73-9.38-10.01
			c-2.24-4.28-3.36-9.29-3.36-15.02c0-6,1.1-11.19,3.3-15.58c2.2-4.39,5.28-7.78,9.23-10.17c3.95-2.39,8.58-3.58,13.9-3.58
			c5.52,0,10.23,1.27,14.11,3.81c3.88,2.54,6.8,6.17,8.74,10.88s2.79,10.32,2.52,16.82h-9.15v-3.26c-0.1-6.74-1.47-11.78-4.12-15.12
			c-2.64-3.34-6.58-5.01-11.79-5.01c-5.59,0-9.84,1.79-12.76,5.39c-2.92,3.59-4.37,8.74-4.37,15.45c0,6.47,1.46,11.49,4.37,15.05
			c2.91,3.56,7.06,5.34,12.45,5.34c3.63,0,6.78-0.83,9.45-2.49c2.68-1.66,4.78-4.05,6.3-7.17l8.69,3c-2.13,4.85-5.35,8.6-9.63,11.26
			S965.3,745.06,959.98,745.06z M939.7,718.62v-7.27h40.56v7.27H939.7z"/>
		<path class="st6" d="M1018.99,745c-6.54,0-11.9-1.43-16.09-4.3c-4.19-2.86-6.75-6.87-7.7-12.02l9.25-1.47
			c0.75,2.98,2.46,5.35,5.13,7.09c2.68,1.75,6,2.62,9.96,2.62c3.73,0,6.67-0.78,8.82-2.34c2.15-1.56,3.23-3.68,3.23-6.35
			c0-1.53-0.36-2.77-1.07-3.74c-0.71-0.97-2.18-1.87-4.4-2.72c-2.22-0.85-5.56-1.88-10.04-3.1c-4.85-1.29-8.66-2.62-11.44-3.99
			c-2.78-1.37-4.76-2.97-5.95-4.8c-1.19-1.83-1.78-4.07-1.78-6.71c0-3.22,0.88-6.03,2.64-8.44c1.76-2.41,4.23-4.28,7.39-5.62
			c3.17-1.34,6.86-2.01,11.06-2.01c4.17,0,7.9,0.66,11.18,1.98c3.29,1.32,5.94,3.19,7.96,5.62c2.02,2.42,3.21,5.24,3.58,8.46
			l-9.25,1.68c-0.44-2.91-1.87-5.23-4.27-6.94c-2.41-1.71-5.47-2.62-9.2-2.72c-3.56-0.1-6.45,0.54-8.67,1.93
			c-2.22,1.39-3.33,3.25-3.33,5.59c0,1.36,0.41,2.5,1.24,3.43c0.83,0.93,2.37,1.82,4.63,2.67c2.25,0.85,5.53,1.81,9.83,2.9
			c4.85,1.22,8.67,2.55,11.46,3.99c2.8,1.44,4.79,3.14,5.97,5.08c1.19,1.95,1.78,4.35,1.78,7.19c0,5.29-1.95,9.45-5.85,12.48
			C1031.21,743.49,1025.84,745,1018.99,745z"/>
		<path class="st6" d="M1055.84,743.53v-9.96h9.96v9.96H1055.84z"/>
		<path class="st6" d="M1107.08,743.53v-73.2h9.05v64.61h33.96v8.59H1107.08z"/>
		<path class="st6" d="M1176.36,745.06c-4.1,0-7.53-0.76-10.29-2.26c-2.76-1.51-4.85-3.5-6.25-5.97s-2.11-5.19-2.11-8.13
			c0-2.88,0.54-5.37,1.63-7.47c1.08-2.1,2.63-3.86,4.65-5.29c2.02-1.42,4.42-2.54,7.19-3.35c2.61-0.71,5.52-1.33,8.74-1.85
			c3.22-0.53,6.49-1.01,9.81-1.45c3.32-0.44,6.44-0.86,9.35-1.27l-3.25,1.88c0.07-4.85-0.91-8.45-2.95-10.8
			c-2.03-2.36-5.56-3.53-10.57-3.53c-3.32,0-6.23,0.76-8.72,2.29c-2.49,1.53-4.24,3.97-5.26,7.32l-8.59-2.59
			c1.32-4.81,3.88-8.59,7.68-11.33c3.79-2.75,8.79-4.12,14.99-4.12c4.98,0,9.26,0.89,12.84,2.67c3.57,1.78,6.14,4.46,7.7,8.06
			c0.78,1.7,1.27,3.53,1.47,5.52c0.2,1.98,0.31,4.06,0.31,6.23v33.96h-8.03v-13.16l1.88,1.22c-2.07,4.47-4.96,7.84-8.69,10.09
			C1186.15,743.93,1181.65,745.06,1176.36,745.06z M1177.73,737.48c3.25,0,6.07-0.59,8.46-1.75c2.39-1.17,4.31-2.71,5.77-4.63
			c1.46-1.91,2.4-4.01,2.85-6.28c0.48-1.69,0.74-3.57,0.81-5.64c0.07-2.07,0.1-3.68,0.1-4.83l3.15,1.37
			c-2.95,0.44-5.85,0.85-8.72,1.22c-2.86,0.37-5.56,0.76-8.08,1.17c-2.53,0.41-4.8,0.9-6.84,1.47c-1.49,0.48-2.89,1.09-4.19,1.85
			c-1.31,0.76-2.36,1.73-3.15,2.9c-0.8,1.17-1.19,2.6-1.19,4.3c0,1.49,0.38,2.92,1.14,4.27c0.76,1.36,1.95,2.46,3.56,3.3
			C1173.02,737.06,1175.12,737.48,1177.73,737.48z"/>
		<path class="st6" d="M1219.97,743.53v-54.9h8.08v13.27l-1.32-1.73c0.65-1.69,1.48-3.25,2.52-4.68c1.03-1.42,2.19-2.59,3.48-3.51
			c1.42-1.15,3.03-2.02,4.83-2.62c1.79-0.59,3.62-0.95,5.49-1.07c1.86-0.12,3.61-0.01,5.24,0.33v8.49c-1.9-0.48-3.98-0.59-6.25-0.36
			c-2.27,0.24-4.37,1.05-6.3,2.44c-1.76,1.29-3.12,2.82-4.09,4.6s-1.64,3.71-2.01,5.79c-0.37,2.08-0.56,4.21-0.56,6.38v27.55
			H1219.97z"/>
		<path class="st6" d="M1279.49,745.06c-5.12,0-9.5-1.27-13.16-3.81c-3.66-2.54-6.48-6-8.46-10.39c-1.98-4.39-2.98-9.33-2.98-14.82
			c0-5.49,0.99-10.42,2.98-14.79c1.98-4.37,4.8-7.82,8.46-10.35c3.66-2.52,8.03-3.79,13.12-3.79c5.18,0,9.54,1.26,13.06,3.79
			c3.52,2.53,6.19,5.96,8.01,10.32c1.81,4.36,2.72,9.29,2.72,14.82c0,5.49-0.91,10.42-2.72,14.79c-1.81,4.37-4.48,7.84-8.01,10.4
			C1288.98,743.78,1284.64,745.06,1279.49,745.06z M1280.15,769.45c-2.88,0-5.69-0.44-8.44-1.32c-2.74-0.88-5.26-2.21-7.55-3.99
			c-2.29-1.78-4.19-4.02-5.72-6.74l8.29-4.37c1.35,2.68,3.28,4.63,5.77,5.85c2.49,1.22,5.06,1.83,7.7,1.83
			c3.49,0,6.38-0.63,8.67-1.9c2.29-1.27,3.99-3.16,5.11-5.67c1.12-2.51,1.66-5.62,1.63-9.35v-14.99h1.07v-40.16h8.03v55.25
			c0,1.53-0.04,2.97-0.13,4.35c-0.09,1.37-0.26,2.74-0.54,4.09c-0.71,3.9-2.12,7.11-4.22,9.63c-2.1,2.52-4.81,4.4-8.13,5.64
			C1288.37,768.83,1284.53,769.45,1280.15,769.45z M1280.61,736.77c3.69,0,6.73-0.89,9.1-2.67c2.37-1.78,4.13-4.23,5.26-7.37
			c1.14-3.14,1.7-6.7,1.7-10.7c0-4.03-0.58-7.61-1.73-10.72c-1.15-3.12-2.89-5.55-5.21-7.29c-2.32-1.75-5.28-2.62-8.87-2.62
			c-3.73,0-6.8,0.91-9.22,2.75c-2.42,1.83-4.22,4.3-5.39,7.42c-1.17,3.12-1.75,6.61-1.75,10.47c0,3.9,0.59,7.41,1.78,10.55
			c1.18,3.14,2.97,5.62,5.36,7.45C1274.03,735.85,1277.02,736.77,1280.61,736.77z"/>
		<path class="st6" d="M1344.76,745.06c-5.39,0-10.09-1.2-14.11-3.58s-7.14-5.73-9.38-10.01c-2.24-4.28-3.36-9.29-3.36-15.02
			c0-6,1.1-11.19,3.3-15.58c2.2-4.39,5.28-7.78,9.22-10.17c3.95-2.39,8.58-3.58,13.9-3.58c5.52,0,10.23,1.27,14.11,3.81
			c3.88,2.54,6.8,6.17,8.74,10.88s2.79,10.32,2.52,16.82h-9.15v-3.26c-0.1-6.74-1.47-11.78-4.12-15.12
			c-2.64-3.34-6.58-5.01-11.79-5.01c-5.59,0-9.84,1.79-12.76,5.39c-2.92,3.59-4.37,8.74-4.37,15.45c0,6.47,1.46,11.49,4.37,15.05
			c2.91,3.56,7.06,5.34,12.45,5.34c3.63,0,6.78-0.83,9.45-2.49c2.68-1.66,4.78-4.05,6.3-7.17l8.69,3c-2.13,4.85-5.35,8.6-9.63,11.26
			S1350.08,745.06,1344.76,745.06z M1324.48,718.62v-7.27h40.56v7.27H1324.48z"/>
		<path class="st6" d="M1426.14,745c-6.54,0-11.9-1.43-16.09-4.3s-6.75-6.87-7.7-12.02l9.25-1.47c0.75,2.98,2.46,5.35,5.13,7.09
			c2.68,1.75,6,2.62,9.96,2.62c3.73,0,6.67-0.78,8.82-2.34c2.15-1.56,3.23-3.68,3.23-6.35c0-1.53-0.36-2.77-1.07-3.74
			c-0.71-0.97-2.18-1.87-4.4-2.72c-2.22-0.85-5.56-1.88-10.04-3.1c-4.85-1.29-8.66-2.62-11.44-3.99c-2.78-1.37-4.76-2.97-5.95-4.8
			c-1.19-1.83-1.78-4.07-1.78-6.71c0-3.22,0.88-6.03,2.64-8.44c1.76-2.41,4.23-4.28,7.39-5.62c3.17-1.34,6.86-2.01,11.06-2.01
			c4.17,0,7.9,0.66,11.18,1.98c3.29,1.32,5.94,3.19,7.96,5.62c2.02,2.42,3.21,5.24,3.58,8.46l-9.25,1.68
			c-0.44-2.91-1.87-5.23-4.27-6.94c-2.41-1.71-5.47-2.62-9.2-2.72c-3.56-0.1-6.45,0.54-8.67,1.93c-2.22,1.39-3.33,3.25-3.33,5.59
			c0,1.36,0.41,2.5,1.24,3.43c0.83,0.93,2.37,1.82,4.63,2.67c2.25,0.85,5.53,1.81,9.83,2.9c4.85,1.22,8.67,2.55,11.46,3.99
			s4.79,3.14,5.97,5.08c1.19,1.95,1.78,4.35,1.78,7.19c0,5.29-1.95,9.45-5.85,12.48C1438.36,743.49,1432.98,745,1426.14,745z"/>
		<path class="st6" d="M1484.49,745.06c-5.56,0-10.28-1.25-14.16-3.74c-3.88-2.49-6.84-5.92-8.9-10.29s-3.09-9.35-3.13-14.94
			c0.03-5.69,1.1-10.72,3.2-15.07c2.1-4.35,5.1-7.76,9-10.22c3.9-2.46,8.59-3.68,14.08-3.68c5.79,0,10.78,1.42,14.97,4.27
			c4.19,2.85,6.99,6.74,8.41,11.69l-8.95,2.69c-1.19-3.18-3.08-5.66-5.67-7.42c-2.59-1.76-5.55-2.64-8.87-2.64
			c-3.76,0-6.86,0.87-9.3,2.62c-2.44,1.75-4.25,4.15-5.44,7.22c-1.19,3.07-1.8,6.58-1.83,10.55c0.07,6.1,1.48,11.02,4.24,14.77
			s6.87,5.62,12.33,5.62c3.59,0,6.57-0.82,8.92-2.47c2.35-1.64,4.16-4.02,5.41-7.14l9.15,2.39c-1.9,5.12-4.86,9.03-8.9,11.74
			C1495.04,743.7,1490.18,745.06,1484.49,745.06z"/>
		<path class="st6" d="M1535.53,745.06c-4.1,0-7.53-0.76-10.29-2.26s-4.85-3.5-6.25-5.97c-1.41-2.47-2.11-5.19-2.11-8.13
			c0-2.88,0.54-5.37,1.63-7.47c1.08-2.1,2.63-3.86,4.65-5.29c2.02-1.42,4.42-2.54,7.19-3.35c2.61-0.71,5.52-1.33,8.74-1.85
			c3.22-0.53,6.49-1.01,9.81-1.45c3.32-0.44,6.44-0.86,9.35-1.27l-3.25,1.88c0.07-4.85-0.91-8.45-2.95-10.8
			c-2.03-2.36-5.56-3.53-10.57-3.53c-3.32,0-6.23,0.76-8.72,2.29c-2.49,1.53-4.24,3.97-5.26,7.32l-8.59-2.59
			c1.32-4.81,3.88-8.59,7.68-11.33c3.79-2.75,8.79-4.12,14.99-4.12c4.98,0,9.26,0.89,12.84,2.67c3.57,1.78,6.14,4.46,7.7,8.06
			c0.78,1.7,1.27,3.53,1.47,5.52c0.2,1.98,0.31,4.06,0.31,6.23v33.96h-8.03v-13.16l1.88,1.22c-2.07,4.47-4.96,7.84-8.69,10.09
			C1545.32,743.93,1540.81,745.06,1535.53,745.06z M1536.9,737.48c3.25,0,6.07-0.59,8.46-1.75c2.39-1.17,4.31-2.71,5.77-4.63
			c1.46-1.91,2.4-4.01,2.85-6.28c0.48-1.69,0.74-3.57,0.81-5.64c0.07-2.07,0.1-3.68,0.1-4.83l3.15,1.37
			c-2.95,0.44-5.85,0.85-8.72,1.22c-2.86,0.37-5.56,0.76-8.08,1.17c-2.53,0.41-4.8,0.9-6.84,1.47c-1.49,0.48-2.89,1.09-4.19,1.85
			c-1.31,0.76-2.36,1.73-3.15,2.9c-0.8,1.17-1.19,2.6-1.19,4.3c0,1.49,0.38,2.92,1.14,4.27c0.76,1.36,1.95,2.46,3.56,3.3
			C1532.18,737.06,1534.29,737.48,1536.9,737.48z"/>
		<path class="st6" d="M1580.15,743.53v-74.72h9.05v74.72H1580.15z"/>
		<path class="st6" d="M1630.27,745.06c-5.39,0-10.09-1.2-14.11-3.58s-7.14-5.73-9.38-10.01c-2.24-4.28-3.36-9.29-3.36-15.02
			c0-6,1.1-11.19,3.3-15.58c2.2-4.39,5.28-7.78,9.22-10.17c3.95-2.39,8.58-3.58,13.9-3.58c5.52,0,10.23,1.27,14.11,3.81
			c3.88,2.54,6.8,6.17,8.74,10.88s2.79,10.32,2.52,16.82h-9.15v-3.26c-0.1-6.74-1.47-11.78-4.12-15.12
			c-2.64-3.34-6.58-5.01-11.79-5.01c-5.59,0-9.84,1.79-12.76,5.39c-2.92,3.59-4.37,8.74-4.37,15.45c0,6.47,1.46,11.49,4.37,15.05
			c2.91,3.56,7.06,5.34,12.45,5.34c3.63,0,6.78-0.83,9.45-2.49c2.68-1.66,4.78-4.05,6.3-7.17l8.69,3c-2.13,4.85-5.35,8.6-9.63,11.26
			S1635.59,745.06,1630.27,745.06z M1609.99,718.62v-7.27h40.56v7.27H1609.99z"/>
		<path class="st6" d="M1668.14,743.53v-9.96h9.96v9.96H1668.14z"/>
	</g>
	<g>
		<polygon class="st0" points="1622.71,415.81 1475.95,415.81 1475.95,299.59 1440.19,299.59 1440.19,570.76 1475.95,570.76
			1475.95,445.61 1622.71,445.61 1622.71,570.76 1658.47,570.76 1658.47,299.59 1622.71,299.59 		"/>
	</g>
	<g>
		<polygon class="st0" points="1763.61,446.72 1893.61,446.72 1893.61,418.78 1763.61,418.78 1763.61,328.27 1904.78,328.27
			1904.78,299.59 1727.85,299.59 1727.85,570.76 1908.51,570.76 1908.51,542.08 1763.61,542.08 		"/>
	</g>
	<g>
		<polygon class="st0" points="2166.43,299.59 1960.08,299.59 1960.08,328.27 2045.38,328.27 2045.38,570.76 2081.13,570.76
			2081.13,328.27 2166.43,328.27 		"/>
	</g>
	<path class="st0" d="M938.25,289.75c-82.53,0-149.43,66.9-149.43,149.43c0,82.53,66.9,149.43,149.43,149.43
		s149.43-66.9,149.43-149.43C1087.68,356.65,1020.78,289.75,938.25,289.75z M938.25,535.43c-53.16,0-96.25-43.09-96.25-96.25
		c0-53.16,43.09-96.25,96.25-96.25c53.16,0,96.25,43.09,96.25,96.25C1034.5,492.33,991.4,535.43,938.25,535.43z"/>
	<path class="st4" d="M1094.66,456.78c-0.38-0.02-0.75-0.06-1.13-0.06c-0.55,0-1.08,0.05-1.62,0.08h2.76
		C1094.67,456.79,1094.67,456.79,1094.66,456.78z"/>
	<path class="st4" d="M1094.68,456.8h0.47c-0.16-0.01-0.33-0.02-0.49-0.02C1094.67,456.79,1094.67,456.79,1094.68,456.8z"/>
	<g>
		<path class="st0" d="M1306.81,459.24h-138.78V299.7h138.78c48.53,0,88.01,35.79,88.01,79.77S1355.34,459.24,1306.81,459.24z
			 M1200.75,426.52h106.06c30.48,0,55.29-21.11,55.29-47.05s-24.8-47.05-55.29-47.05h-106.06V426.52z"/>
	</g>
	<rect x="1166.51" y="299.59" class="st0" width="35.76" height="271.17"/>
	<path class="st0" d="M386.91,301.44H257.14v0.01h-1.53v269.3h59.25v-86.31h72.06c54.99,0,99.73-41.05,99.73-91.5
		S441.9,301.44,386.91,301.44z M386.91,428.27h-72.06v-70.65h72.06c24.01,0,43.55,15.85,43.55,35.32
		C430.46,412.42,410.92,428.27,386.91,428.27z"/>
	<path class="st0" d="M759.11,392.95c0-50.46-44.74-91.5-99.74-91.5H529.61v0.01h-1.53v269.3h59.25v-86.31h60.01l43.4,88.18h62.44
		l-48.99-97.97C736.73,459.57,759.11,428.62,759.11,392.95z M587.32,357.62h72.05c24.02,0,43.56,15.85,43.56,35.32
		c0,19.48-19.54,35.32-43.56,35.32h-72.05V357.62z"/>
	<linearGradient id="SVGID_1_" gradientUnits="userSpaceOnUse" x1="878.5385" y1="439.1783" x2="1275.7163" y2="439.1783">
		<stop  offset="0.1222" style="stop-color:#00C6BB"/>
		<stop  offset="0.2334" style="stop-color:#00C0B6"/>
		<stop  offset="0.3873" style="stop-color:#00AEA9"/>
		<stop  offset="0.566" style="stop-color:#009194"/>
		<stop  offset="0.7635" style="stop-color:#006876"/>
		<stop  offset="0.974" style="stop-color:#003450"/>
		<stop  offset="1" style="stop-color:#002D4B"/>
	</linearGradient>
	<path class="st3" d="M993.02,426.52c-5.78-25.91-28.89-45.28-56.54-45.28c-4.59,0-9.04,0.55-13.32,1.56
		c1.35,3.11,2.1,6.54,2.1,10.15c0,14.15-11.47,25.62-25.62,25.62c-5.67,0-10.89-1.86-15.14-4.98c-3.81,7.72-5.96,16.4-5.96,25.6
		c0,32,25.94,57.94,57.94,57.94c24.95,0,46.21-15.77,54.37-37.88h284.87v-32.72H993.02z M908.32,451.44c-4.73,0-8.56-3.83-8.56-8.56
		c0-4.73,3.83-8.56,8.56-8.56c4.73,0,8.56,3.83,8.56,8.56C916.87,447.61,913.04,451.44,908.32,451.44z"/>
</g>
</svg>
